<svg xmlns="http://www.w3.org/2000/svg" viewBox="0 0 45 45">
	<g fill="black" stroke="black" stroke-width="1.5" stroke-linejoin="round">
		<path d="M 22,10 C 32.5263,18.0919 38.4830,8.93231 37,6.5 C 25,4 17.27,8.93231 16,7.5 C 16,7.5 15.27,25 27,29 C 30.5,31 38.513,29.637 39,26 C 41.013,24.637 44,20.5 44,20.5 C 44,20.5 35.13,25.637 35,39.5 L 25,39.5 C 25,39.5 22.52,30 22,30 C 22,30 13.48,30 13,39.5 L 3,39.5 C 2.87,25.637 -3.987,20.5 -3,20.5 C -3,20.5 0.987,24.637 3,26 C 3.487,29.637 11.5,31 15,29 C 26.73,25 25,7.5 25,7.5 C 23.73,8.93231 16,4 4,6.5 C 2.517,8.93231 8.474,18.0919 19,10 Z"/>
	</g>
</svg>