<svg xmlns="http://www.w3.org/2000/svg" viewBox="0 0 45 45">
	<g fill="white" stroke="black" stroke-width="1.5" stroke-linejoin="round">
		<g>
			<path d="M 9,36 C 12.39,35.03 19.11,36.43 22.5,34 C 25.89,36.43 32.61,35.03 36,36 C 36,36 37.65,36.67 39,38 L 9,38 C 10.354,36.06 12,36 9,36 Z" stroke="none"/>
			<path d="M 15,32 L 30,32 L 30,38 L 15,38 Z" stroke="none"/>
		</g>
		<path d="M 25,8 A 7.5,7.5 0 1 1 10,23.5 A 7.5,7.5 0 0 1 25,8 Z"/>
		<path d="M 25,25 C 17.9772,20.1927 30.9772,20.2067 25,25 Z" stroke="none" fill="white"/>
	</g>
</svg>