<svg xmlns="http://www.w3.org/2000/svg" viewBox="0 0 45 45">
	<g fill="white" stroke="black" stroke-width="1.5" stroke-linejoin="round">
		<path d="M 9,26 C 17.5,24.5 30,24.5 36,26 L 38.5,13.5 L 31,25 L 30.5,14.5 L 25.5,27.5 L 22.5,15 L 19.5,27.5 L 14.5,14.5 L 14,25 L 6.5,13.5 Z"/>
		<path d="M 9,26 C 9,28 10.5,30 12.5,30 L 33.5,30 C 35.5,30 37,28 37,26"/>
		<path d="M 12.5,30 C 12.5,30 12,33 12,36 C 12,39 12.5,42 12.5,42 L 32.5,42 C 32.5,42 33,39 33,36 C 33,33 32.5,30 32.5,30"/>
		<path d="M 20,30 L 20,42"/>
		<path d="M 30,30 L 30,42"/>
	</g>
</svg>